<?xml version="1.0" encoding="UTF-8"?>
<svg id="Layer_2" data-name="Layer 2" xmlns="http://www.w3.org/2000/svg" viewBox="0 0 215.66 237.57">
  <path d="M25.81,146.02c0-.7.02-1.4.03-2.1,0-.39-.03-.77-.03-1.16v3.26Z"/>
  <path d="M134.6,23.14c.06.05.12.11.18.16.04.03.07.06.11.09l-.29-.26Z"/>
  <path d="M134.78,23.3c-.37-.32-.74-.64-1.12-.96-.72-.59-1.46-1.16-2.22-1.71-6.68-4.83-14.79-7.86-23.64-7.86-7.81,0-15.11,2.41-21.32,6.3-.74.47-1.48.94-2.19,1.46l-1.04.77c-34.67,29.67-56.81,73.55-57.42,122.61.62,44.77,37.09,80.88,82.01,80.88s79.89-34.62,81.95-78.11c.02-.35.03-.71.04-1.06-.09-48.65-21.35-92.33-55.06-122.33ZM124.27,52.52c3.95,4.61,8.63,11.14,9.59,13.37.86,2,1.5,7.01,1.14,8.95-.19,1.08-.36,1.22-.93.85-.38-.26-1.69-1.42-2.91-2.59-2.06-1.99-2.37-2.5-4.41-7.36-1.95-4.67-2.23-5.69-2.6-9.53-.25-2.6-.21-4.06.11-3.69ZM107.54,45.06c6.87,4.22,9.15,6.33,11.28,10.47,1.42,2.76,2.63,7.16,2.03,7.41-.16.06-1.5-.47-3-1.18-1.6-.76-3.63-2.25-4.95-3.62-1.99-2.08-2.52-2.97-4.98-8.43l-2.75-6.11,2.37,1.46ZM117.76,173.07c-1.34,3.53-2.46,6.14-3.36,7.83s-1.49,2.64-1.76,2.83c-.27.19-.96.34-2.05.45l-4.43.53c-1.04.05-1.61-.15-1.7-.61s-.23-2.23-.41-5.29c-.18-3.06-.38-5.35-.6-6.87-.22-1.52-1.01-5.65-2.38-12.4-1.37-6.75-2.28-13.57-2.75-20.46-.19.11-1.33,3.98-3.42,11.62-2.09,7.64-3.53,12.75-4.31,15.33-.78,2.58-1.87,5.34-3.26,8.28-1.4,2.94-3.19,5.4-5.37,7.4-2.19,2-4.79,2.99-7.8,2.99-2.63,0-4.74-.83-6.34-2.48-1.6-1.65-2.4-3.19-2.4-4.61,0-.88.96-2.21,2.89-4,1.93-1.79,3.29-2.69,4.08-2.69.87,0,1.42.96,1.64,2.89s.71,3.37,1.46,4.33c.75.96,1.65,1.44,2.69,1.44,4.08,0,8.08-7.76,12.02-23.29l1.23-4.96c1.61-6.22,3-11.25,4.17-15.09-4.5,2.16-9.2,3.26-14.13,3.26s-9.75-1.1-14.12-3.3c-3.52,2.2-6.58,3.3-9.17,3.3-1.46,0-2.7-.42-3.7-1.27-1-.84-1.5-1.87-1.5-3.09,0-1.97,1.03-3.63,3.09-4.99,2.06-1.35,4.63-2.03,7.73-2.03,2.2,0,4.3.35,6.3,1.06,1.78-1.46,2.99-3.23,3.63-5.28.65-2.06,1.3-5.69,1.94-10.9.65-5.21,1.66-9.31,3.04-12.3,1.38-2.99,3.42-5.49,6.11-7.5,2.69-2.01,5.4-3.18,8.14-3.49l1.65,2.24c-1.75,1.78-3.05,3.58-3.91,5.41-.86,1.83-1.64,5.77-2.33,11.81-.69,6.04-2.02,10.58-3.98,13.61-1.96,3.03-4.97,5.71-9.02,8.05l5.41,2.28c1.75.76,3.18,1.27,4.29,1.54,1.11.27,2.18.4,3.19.4,3.96,0,7.26-2.21,9.9-6.6l.16-.46c.3-.85.6-1.37.88-1.56.02-.01.05-.02.07-.03.09-.18.18-.35.26-.54,2.83-6.13,4.25-12.7,4.25-19.72,0-7.41-1.8-13.38-5.39-17.9-3.59-4.52-8.29-6.78-14.09-6.78-4.65,0-9.01,1.67-13.08,5.01-4.07,3.34-6.11,6.87-6.11,10.59,0,2.79,1.18,4.69,3.55,5.71,1.02.48,1.52,1.11,1.52,1.9s-1.11,1.7-3.32,2.66c-2.21.96-3.56,1.44-4.04,1.44-1.44,0-2.71-.84-3.8-2.51-1.1-1.68-1.65-3.53-1.65-5.56,0-5.38,2.81-10.49,8.43-15.32,5.62-4.83,12.94-7.25,21.95-7.25s15.5,2.37,20.62,7.12c5.13,4.75,7.69,11.11,7.69,19.08,0,6.09-1.58,11.86-4.75,17.33-.88,1.51-1.84,2.93-2.89,4.27.1.33.15.8.15,1.41-.02,5.93.89,13.9,2.7,23.9,1.82,10,2.9,17.07,3.26,21.2,2.29-5.85,4.53-14.36,6.72-25.54,1.53-8.14,3.32-13.77,5.36-16.89s4.45-4.67,7.21-4.67c2.24,0,3.36,1.29,3.36,3.85,0,1.48-.28,2.52-.84,3.14s-1.71,1.04-3.46,1.29-3.32,1.22-4.71,2.91c-1.39,1.69-2.68,5.19-3.85,10.49l-2.99,13.65c-1.06,4.73-2.27,8.86-3.61,12.38ZM160.66,185.28c-4.1,3.84-5.16,4.6-8.33,5.94-2.61,1.1-4.35,1.54-6.13,1.51-3.28-.03-6.7-1.08-6.19-1.87,1.08-1.69,5.57-5.13,8.14-6.24,2.39-1.01,9.15-2.53,15.8-3.52,1.25-.19.88.28-3.29,4.18ZM164.43,170.43c-3.43,3.98-6.15,5.74-9.9,6.37-1.02.17-2.21.17-2.64,0-1.02-.42-.75-1.67,1.12-5.23,2.07-3.94,5.08-6.8,10.09-9.58,6.44-3.57,8.23-4.44,8.2-3.94-.07,1.07-5.39,10.68-6.86,12.39ZM170.01,133.98c1.67-1.67,2.19-1.62,1.27.12-.36.69-.8,2.6-.96,4.24-.51,5.09-1.15,7.03-4.24,12.97-1.16,2.23-5.1,5.45-7.25,5.92-.63.14-1.19.15-1.25,0-.4-.94.31-5.84,1.27-8.71,1.32-3.96,5.1-9.58,7.88-11.71,1.03-.79,2.51-2.07,3.28-2.84ZM151.71,98.15c.34-2.98,3.06-12.77,3.63-13.01.17-.08.38.49.46,1.26.08.76.68,3.35,1.34,5.73,2.32,8.39,2.27,14.42-.15,18.5-1.52,2.57-2.06,3.3-2.76,1.99,1.74,5.59,2.94,11.2,3.63,16.74-.39-4.67.29-8.07,2.35-12.06,1.96-3.77,5.28-9.62,5.54-9.73.4-.17.47,14.08.07,16.88-.46,3.28-2.07,6.7-4.3,9.11-1.94,2.11-2.48,2.38-2.88,1.43-.11-.26-.29-1.34-.47-2.73,2.51,27.31-7.56,52.57-27.22,65.1,4.17-.68,9.74-.63,13.22.4,1.02.3,2.37.52,2.97.49,1.4-.09,5.71.55,5.84.85.06.13-.13.29-.42.36-.28.07-2.66.88-5.29,1.79-5.22,1.8-5.65,1.89-11.14,2.13-3.28.14-4.22-.06-7.47-1.64l-2.97-1.44c-.69.34-1.4.66-2.11.96l4.32-4.58c-1.17.52-1.35.36-1.63-.3-.56-1.29.42-6.69,1.6-8.92.52-.99,1.86-2.71,2.99-3.85s2.69-2.93,3.48-4l1.42-1.94.26,1.3c.46,2.27-.06,6.79-1,10.15l4.03-4.28c-.82-3.95.03-8.27,3.41-18.68l1.21-3.71.72,2.57c1.25,4.48,1.7,8.94,1.36,12.71l3.1-3.29c.42-.81.83-1.63,1.21-2.47l-1.47-3.86c-1.97-5.2-2.38-8.01-1.83-12.4.13-1.03.26-3.95.28-6.5l.04-4.62,1.96,3.87c2.36,4.66,4.42,11.04,4.54,14v.22c.93-3.12,1.67-6.37,2.18-9.68l-.76-.88c-3.63-4.18-4.91-7.38-6.87-17.07-.69-3.4-1.49-6.77-1.79-7.47-1.74-4.15,1.94-.19,5.9,6.34,2.09,3.44,3.65,7.51,4.4,11.01.26-4.36.17-8.81-.25-13.28-.19-.09-.52-.26-.87-.47-1.47-.87-4.7-4.26-6.29-6.6-1.25-1.83-8.67-16.86-8.55-17.31.13-.5,8.79,6.96,10.55,9.08,1.56,1.89,2.97,4.4,3.95,6.87-.56-2.92-1.28-5.84-2.15-8.73-.42-1.41-.87-2.83-1.35-4.22-.09.45-.6.16-2.51-1.07-5.07-3.22-8.73-7.14-16.5-17.68l-.79-1.07,1.47.77c.81.42,3.43,1.78,5.84,3,3.73,1.89,4.74,2.65,6.87,5.18,1.13,1.34,2.29,3.04,3.25,4.7-1.93-4.53-4.19-8.91-6.76-13.06-.36.03-1.04-.13-2.07-.42-3.08-.88-8.04-3.49-9.71-5.1-2.28-2.22-5.7-4.84-7.88-6.05-1.08-.61-2.05-1.27-2.14-1.5-.1-.22,2.06-.03,4.78.43,3.88.65,5.78,1.29,8.78,2.98,1.14.64,2.04,1.2,2.82,1.78-2.19-2.84-4.52-5.53-6.99-8.04-.27.08-.64.13-1.12.18-1.55.16-6.89-1.09-9.92-2.32-1.67-.68-4.8-1.92-6.96-2.76-2.15-.83-3.87-1.6-3.87-1.74.17-.61,5.69-1.16,9.13-.92,2.05.15,4.07.61,5.92,1.33-1.77-1.44-3.59-2.78-5.46-4.03-.71-.49-1.43-.95-2.16-1.41l-.57.23c-1.17.48-3.28,1.04-4.69,1.27-1.41.23-4.62.15-7.14-.16-2.52-.32-5.35-.58-6.3-.59-2.46-.03-1.69-.91,2.32-2.65,3.58-1.54,6.65-2.18,9.58-1.88-2.46-1.2-4.96-2.23-7.48-3.1-.05.16-.16.35-.35.56-.88,1-6.39,3.55-9.06,4.2-1.36.34-3.99,1.07-5.83,1.63-1.85.56-3.3.79-3.21.51.32-1.07,5.06-5.45,7.33-6.77,1.6-.95,3.72-1.56,5.7-1.74-3.12-.91-5.6-1.64-7.53-2.23h0c-.69.28-2.17.51-3.28.51s-2.99-.38-4.18-.84c-2.03-.79-9.13-5.46-9-5.91.03-.12,1.04-.25,2.24-.3,1.21-.05,3.45-.18,5-.29,4.32-.3,8.67,2.01,10.1,5.35.08.2.14.36.15.51,2.55.49,5.15.99,6.45,1.14,1.42.35,2.84.75,4.25,1.21-2.56-1.2-5.77-3.27-7.16-4.77-1.6-1.73-5.31-6.88-5.2-7.22.03-.11,1.75.26,3.81.82,4.17,1.14,9.44,4.22,11.14,6.49,1.29,1.73,2.58,5.19,2.11,5.62-.16.15-.98.16-1.87.03,19.71,7.3,37.75,24.52,47.84,48.29.54,1.26,1.04,2.52,1.51,3.79-.79-3.1-.97-5.9-.62-8.99ZM148.45,87.7c-.03,1.82-1.15,4.81-1.93,5.14-.12.05-.65-.29-1.17-.75-.61-.55-1.73-2.67-3.06-5.84-1.99-4.66-2.12-5.2-2.18-8.59-.03-1.99.09-5.38.27-7.54l.33-3.92,2.29,4.48c4.03,7.88,5.53,12.58,5.45,17.03Z"/>
  <path d="M189.85,145.52s0,.07,0,.1c0,.1,0,.2,0,.3v-.41Z"/>
</svg>